<svg xmlns="http://www.w3.org/2000/svg" width="1280" height="800" viewBox="0 0 1280 800"><path stroke="#fff" stroke-width="2" stroke-miterlimit="10" d="M34.5-83.5l-52.6 423.6 59.3-234.7-6.7-188.9zm0 0l6.6 189 44.1-120-50.7-69zm0 0l50.8 68.9 100.9-48.2-151.7-20.7zm0 0l151.7 20.7 69.5-37.6-221.2 16.9zm0 0l221.2-16.8 377.3-41.2-598.5 58zm151.7 20.7l-100.9 48.2 91.4 1.3 9.5-49.5zm0 0l-9.5 49.4 146.5-25.3-137-24.1zm0 0l137 24.2-67.5-61.7-69.5 37.5zm69.5-37.5l67.5 61.7 91.8-60.6-159.3-1.1zm0 0l159.3 1.1 218-42.3-377.3 41.2zm159.3 1.1l-91.8 60.6 120.1 8.8-28.3-69.4zm0 0l28.3 69.4 50.4-31.7-78.7-37.7zm0 0l78.7 37.7 139.3-80-218 42.3zm78.7 37.6l-50.4 31.7 83.8 1.7-33.4-33.4zm0 0l33.4 33.4 105.9-113.3-139.3 79.9zm139.3-79.9l-105.9 113.3 115.5 20.2-9.6-133.5zm0 0l9.6 133.5 77.9-80-87.5-53.5zm0 0l87.4 53.5 146.6-58.1-234 4.6zm87.4 53.5l-77.8 80 101.7-16.1-23.9-63.9zm0 0l23.8 63.9 122.8-122.1-146.6 58.2zm146.7-58.1l-122.8 122 173.2-15.4-50.4-106.6zm0 0l50.4 106.7 47.8-42-98.2-64.7zm0 0l98.2 64.7 116 10.7-214.2-75.4zm0 0l214.1 75.4 160.8-23.8-374.9-51.6zm98.1 64.7l-47.8 42 108.1 48.1-60.3-90.1zm0 0l60.3 90.1 55.6-79.3-115.9-10.8zm116 10.7l-55.6 79.3 126 26.5-70.4-105.8zm0 0l70.4 105.9 90.4-129.7-160.8 23.8zm160.8-23.8l-90.4 129.6 132.7-83.3-42.3-46.3zm-1156.7 79.9l-44.1 120 144-28-99.9-92zm0 0l99.9 92-8.5-90.7-91.4-1.3zm91.4 1.3l8.5 90.7 130.8 15.9-139.3-106.6zm0 0l139.3 106.6 7.2-131.9-146.5 25.3zm146.5-25.3l-7.2 131.9 134.2-28.9-127-103zm0 0l127 103-6.9-94.2-120.1-8.8zm120.1 8.8l6.9 94.2 77-92.6-83.9-1.6zm83.8 1.6l-77 92.6 28.4 23.5 48.6-116.1zm0 0l-48.5 116.1 134.7-2.8-86.2-113.3zm0 0l86.2 113.3 29.3-93.1-115.5-20.2zm115.5 20.2l-29.3 93.1 141.7-16.9-112.4-76.2zm0 0l112.5 76.2-10.8-92.3-101.7 16.1zm101.7-16.1l10.8 92.3 112.9-10.1-123.7-82.2zm0 0l123.7 82.2 49.5-97.6-173.2 15.4zm173.1-15.4l-49.5 97.6 157.6-49.5-108.1-48.1zm108.2 48.1l-157.7 49.5 134.3 73.1 23.4-122.6zm0 0l-23.3 122.6 94.1-19.3-70.8-103.3zm0 0l70.7 103.2 55.3-76.7-126-26.5zm126 26.5l-55.3 76.7 146.2-22.4-90.9-54.3zm0 0l90.9 54.3 41.9-137.6-132.8 83.3zm132.7-83.3l-41.9 137.6 36 366.6 5.9-504.2zm0 0l-5.9 504.1 15.9 290-10-794.1zm0 0l10.1 794.1 5.1 185.4-15.2-979.5zm-1243.1 153.7l-59.3 234.7 54.1-183.4 5.2-51.3zm0 0l-5.2 51.3 149.2-79.4-144 28.1zm144-28.1l-149.2 79.4 132.9 89 16.3-168.4zm0 0l-16.3 168.4 102.9-3.8-86.6-164.6zm0 0l86.6 164.6 44.2-148.7-130.8-15.9zm130.8 15.9l-44.2 148.7 86.8-88.3-42.6-60.4zm0 0l42.6 60.4 91.6-89.3-134.2 28.9zm134.2-28.9l-91.6 89.3 120-65.8-28.4-23.5zm28.4 23.5l-120 65.8 160.3 92.2-40.3-158zm0 0l40.3 158 89.6-83.1-129.9-74.9zm0 0l129.8 74.9 4.9-77.7-134.7 2.8zm134.7-2.8l-4.9 77.7 146.6-94.6-141.7 16.9zm141.8-16.9l-146.6 94.6 123.7 48.4 22.9-143zm0 0l-23 143 100.4 4.2-77.4-147.2zm0 0l77.5 147.2 35.4-157.3-112.9 10.1zm112.8-10.1l-35.4 157.3 121.1 2.2-85.7-159.5zm0 0l85.6 159.5 48.6-86.4-134.2-73.1zm134.3 73.1l-48.6 86.4 223.9-25-175.3-61.4zm0 0l175.2 61.4-81.2-80.8-94 19.4zm94.1-19.4l81.2 80.8 65.1-103.2-146.3 22.4zm146.2-22.4l-65.1 103.2 33.6 41.1 31.5-144.3zm0 0l-31.5 144.3 67.5 222.3-36-366.6zm-1206.5 67.4l-54.1 183.3 187-94.3-132.9-89zm132.9 89l-187 94.3 151.6 24.4 35.4-118.7zm0 0l-35.5 118.7 60.2-35.6-24.7-83.1zm0 0l24.8 83 78.1-86.8-102.9 3.8zm102.9-3.8l-78.1 86.8 110.6-2.1-32.5-84.7zm0 0l32.5 84.7 103.4 16.6-135.9-101.3zm0 0l135.9 101.3-49.1-189.7-86.8 88.4zm86.8-88.3l49.1 189.7 111.2-97.4-160.3-92.3zm160.3 92.2l-111.2 97.4 54.6-.5 56.6-96.9zm0 0l-56.6 97 41.7 40 14.9-137zm0 0l-14.9 137 143.2-55.4-128.3-81.6zm0 0l128.3 81.6-38.8-164.7-89.5 83.1zm89.5-83.1l38.8 164.7 84.9-116.3-123.7-48.4zm123.7 48.4l-84.9 116.3 92.9-41.7-8-74.6zm0 0l8 74.7 92.4-70.5-100.4-4.2zm100.4 4.2l-92.4 70.5 189.2-21.2-96.8-49.3zm0 0l96.8 49.2 24.3-47.1-121.1-2.1zm121.1 2.2l-24.3 47.1 30.4 12.3-6.1-59.4zm0 0l6.1 59.4 217.7-84.3-223.8 24.9zm223.8-25l-217.7 84.4 228.6.3-10.9-84.7zm0 0l10.8 84.6 22.7-43.6-33.5-41zm33.6 41.1l-22.7 43.6 35.9 132.1-13.2-175.7zm0 0l13.2 175.7 54.3 46.6-67.5-222.3zm-1229.1 106.4l3 595.1 11.1-397.1-14.1-198zm0 0l14.2 198 9.8-97.5-24-100.5zm0 0l24 100.5 127.6-76.2-151.6-24.3zm211.8-11.3l-60.2 35.6 124.3 14.9-64.1-50.5zm0 0l64.1 50.5 46.5-52.6-110.6 2.1zm110.6-2.1l-46.5 52.6 142.8-1.4-96.3-51.2zm0 0l96.2 51.3 7.2-34.7-103.4-16.6zm103.4 16.6l-7.2 34.7 61.8-35.1-54.6.4zm54.6-.4l-61.8 35.1 103.5 4.9-41.7-40zm184.9-15.4l-143.2 55.4 119.7 47.8 23.5-103.2zm0 0l-23.6 103.2 100.4-10.5-76.8-92.7zm0 0l76.8 92.7 16.1-134.4-92.9 41.7zm92.9-41.6l-16.1 134.3 203.1-39.6-187-94.7zm0 0l187 94.8 2.2-116-189.2 21.2zm189.2-21.3l-2.2 116 32.6-103.6-30.4-12.4zm30.4 12.4l-32.6 103.7 103.2-2.8-70.6-100.9zm0 0l70.7 101 109.2-48.3-179.9-52.7zm0 0l179.8 52.7 48.8-52.4-228.6-.3zm179.8 52.7l-109.2 48.3 90.5 20.3 18.7-68.6zm0 0l-18.6 68.6 103.3 11.1-84.7-79.7zm0 0l84.7 79.7-35.9-132.1-48.8 52.4zm-1133.6 111l-9.9 97.4 135.1-37.7-125.2-59.7zm0 0l125.3 59.8 2.3-135.9-127.6 76.1zm127.5-76.2l-2.3 135.9 126.6-121-124.3-14.9zm124.4 14.9l-126.6 121 116.8 24.7 9.8-145.7zm0 0l-9.8 145.7 96.4-68.4-86.6-77.3zm0 0l86.6 77.4 56.1-78.7-142.7 1.3zm142.7-1.4l-56.1 78.7 155.3 61.1-99.2-139.8zm0 0l99.2 139.8 4.3-134.9-103.5-4.9zm103.5 4.9l-4.3 134.9 86.1-13.8-81.8-121.1zm0 0l81.8 121.1 37.8-73.3-119.6-47.8zm119.6 47.8l-37.8 73.3 145.2-11.4-107.4-61.9zm0 0l107.3 61.9-7-72.3-100.3 10.4zm100.4-10.5l7 72.3 108.7-35.3-115.7-37zm0 0l115.6 37.1 87.5-76.6-203.1 39.5zm203.1-39.5l-87.5 76.6 189 14.5-101.5-91.1zm0 0l101.5 91.2 1.8-93.9-103.3 2.7zm103.3-2.8l-1.8 93.9 92.3-73.6-90.5-20.3zm90.5 20.3l-92.3 73.6 117.9 20.7-25.6-94.3zm0 0l25.7 94.3 77.6-83.2-103.3-11.1zm103.3 11.2l-77.6 83.2 131.9-36.6-54.3-46.6zm-1228.2 128.7l-11.2 397.1 40.8-99.9-29.6-297.2zm0 0l29.6 297.1 39.2-106.1-68.8-191zm0 0l68.8 191 12.7-140.9-81.5-50.1zm0 0l81.5 50.2 53.6-87.9-135.1 37.7zm135.1-37.7l-53.6 87.9 37.5 38.1 16.1-126zm0 0l-16.1 126 119.4-25.5-103.3-100.5zm0 0l103.3 100.5 13.6-75.7-116.9-24.8zm116.9 24.7l-13.6 75.7 174.9 41.7-161.3-117.4zm0 0l161.4 117.5-65-185.9-96.4 68.4zm96.4-68.4l65 185.9 90.3-124.8-155.3-61.1zm155.3 61.1l-90.3 124.8 111.1-16.2-20.8-108.6zm0 0l20.8 108.6 63.9-27.4-84.7-81.2zm0 0l84.7 81.3 1.3-95.1-86 13.8zm86.1-13.8l-1.3 95.1 146.5-106.5-145.2 11.4zm145.1-11.4l-146.5 106.5 221.4-15.7-74.9-90.8zm0 0l74.9 90.9 33.8-126.1-108.7 35.2zm108.7-35.3l-33.8 126.1 61.2 40.8-27.4-166.9zm0 0l27.4 166.9 134.3-21.1-161.7-145.8zm0 0l161.7 145.8 27.3-131.2-189-14.6zm189 14.6l-27.3 131.2 145.2-110.5-117.9-20.7zm117.9 20.7l-145.2 110.5 153-6.7-7.8-103.8zm0 0l7.8 103.9 74.3-5.5-82.1-98.4zm0 0l82 98.4 49.9-135-131.9 36.6zm132-36.6l-49.9 135 65.9 155-16-290zm-1201 132.3l-12.7 140.9 50.2-102.8-37.5-38.1zm37.5 38.1l-50.2 102.8 58.3 1.6-8.1-104.4zm0 0l8.1 104.3 111.3-129.8-119.4 25.5zm119.4-25.5l-111.3 129.8 168.3-63.7-57-66.1zm0 0l57 66.2 117.9-24.4-174.9-41.8zm175 41.7l-118 24.4 129.1 86.3-11.1-110.7zm0 0l11.1 110.7 47.7-9-58.8-101.7zm0 0l58.9 101.8 52.3-117.9-111.2 16.1zm111.1-16.1l-52.3 117.9 194.6-60.6-142.3-57.3zm0 0l142.4 57.4-78.4-84.7-64 27.3zm63.9-27.4l78.4 84.7 143-100.4-221.4 15.7zm221.4-15.7l-143 100.4 113.6 51.5 29.4-151.9zm0 0l-29.4 151.8 90.5-111-61.1-40.8zm61.2 40.8l-90.5 111 106.4-44-15.9-67zm0 0l15.8 67 118.5-88.1-134.3 21.1zm134.3-21.1l-118.5 88.1 128.7 57.7-10.2-145.8zm0 0l10.2 145.8 154.1-43.4-164.3-102.4zm0 0l164.3 102.4-11.3-109.1-153 6.7zm153-6.7l11.3 109.1 63-114.6-74.3 5.5zm74.3-5.4l-63 114.6 128.8 40.4-65.8-155zm-1163.8 138.2l-39.2 106.1 128.5-60.6-89.3-45.5zm0 0l89.3 45.5-31-43.9-58.3-1.6zm58.3 1.5l31 43.9 137.3-107.6-168.3 63.7zm168.3-63.7l-137.3 107.6 154-4.3-16.7-103.3zm0 0l16.6 103.3 112.5-17-129.1-86.3zm129.1 86.4l-112.5 17 118.2 36.1-5.7-53.1zm0 0l5.7 53.1 42-62-47.7 8.9zm47.7-9l-42 62 101.9 44.5-59.9-106.5zm0 0l60 106.5 56.7-44.3-116.7-62.2zm0 0l116.6 62.2 78-122.7-194.6 60.5zm194.6-60.6l-78 122.7 191.6-71.3-113.6-51.4zm113.7 51.5l-191.6 71.3 125.8 94.3 65.8-165.6zm0 0l-65.8 165.6 104.7-112.2-38.9-53.4zm0 0l38.9 53.4 67.5-97.4-106.4 44zm106.3-44.1l-67.5 97.4 88.3 7-20.8-104.4zm0 0l20.8 104.4 107.9-46.8-128.7-57.6zm128.7 57.7l-107.9 46.8 58.4 51.4 49.5-98.2zm0 0l-49.5 98.2 110.7-2.9-61.2-95.3zm0 0l61.2 95.3 92.9-138.7-154.1 43.4zm154.1-43.3l-92.9 138.7 208.1-18-115.2-120.7zm0 0l115.2 120.7 13.6-80.3-128.8-40.4zm128.8 40.4l-13.6 80.3 18.8 105.1-5.2-185.4zm-1268.8 89.3l-40.8 99.9 192 11.8-151.2-111.7zm0 0l151.3 111.7-22.8-172.4-128.5 60.7zm128.5-60.7l22.8 172.4 147.5-21.6-170.3-150.8zm0 0l170.2 150.7-16.3-155-153.9 4.3zm154-4.3l16.3 155 102-119-118.3-36zm118.2 36.1l-102 119 84.7-9.7 17.3-109.3zm0 0l-17.3 109.3 84.4-13.3-67.1-96zm0 0l67.1 96 34.8-51.6-101.9-44.4zm101.9 44.5l-34.8 51.6 92.7 38.3-57.9-89.9zm0 0l57.9 89.9-1.3-134.2-56.6 44.3zm56.7-44.4l1.3 134.2 124.6-39.9-125.9-94.3zm230.5-17.8l-104.7 112.1 220 39-115.3-151.1zm0 0l115.3 151.1-27.1-144.1-88.2-7zm88.2 7l27.1 144.1 31.3-92.7-58.4-51.4zm58.5 51.4l-31.3 92.7 103.5-31.3-72.2-61.4zm0 0l72.2 61.4 38.5-64.3-110.7 2.9zm110.6-2.9l-38.5 64.3 51.3 28.5-12.8-92.8zm0 0l12.9 92.7 195.2-110.7-208.1 18zm208.1-18l-195.2 110.7 214-5.6-18.8-105.1zm-1103.9 120.8l753.9-7.2-344.6 1-409.3 6.2zm0 0l409.3-6.2-261.8-15.4-147.5 21.6zm147.4-21.6l261.8 15.4-177.1-25.1-84.7 9.7zm84.7-9.7l177.1 25.1-92.7-38.3-84.4 13.2zm177.1 25.1l344.6-1-220-39-124.6 40zm344.6-1l154.9-2.9-51.3-28.5-103.6 31.4z" fill="none" opacity=".15"/></svg>